<svg xmlns="http://www.w3.org/2000/svg" xmlns:xlink="http://www.w3.org/1999/xlink" width="500" zoomAndPan="magnify" viewBox="0 0 375 374.999991" height="500" preserveAspectRatio="xMidYMid meet" version="1.0"><defs><g><g id="id1"/></g><clipPath id="id2"><path d="M 82 137.164062 L 114 137.164062 L 114 176 L 82 176 Z M 82 137.164062 " clip-rule="nonzero"/></clipPath><clipPath id="id3"><path d="M 123 137.164062 L 155 137.164062 L 155 176 L 123 176 Z M 123 137.164062 " clip-rule="nonzero"/></clipPath><clipPath id="id4"><path d="M 66.351562 179 L 171 179 L 171 237.664062 L 66.351562 237.664062 Z M 66.351562 179 " clip-rule="nonzero"/></clipPath></defs><path fill="rgb(3.919983%, 7.839966%, 18.429565%)" d="M 183.777344 104.6875 L 183.777344 247.691406 L 118.867188 270.429688 L 54.027344 247.691406 L 54.058594 228.992188 L 54.191406 145.128906 L 54.027344 104.6875 L 183.777344 104.6875 " fill-opacity="1" fill-rule="nonzero"/><g clip-path="url(#id2)"><path fill="rgb(100%, 100%, 100%)" d="M 85.242188 152.621094 C 85.242188 145.621094 90.9375 139.929688 97.9375 139.929688 C 104.933594 139.929688 110.628906 145.621094 110.628906 152.621094 L 110.628906 160.15625 C 110.628906 167.15625 104.933594 172.847656 97.9375 172.847656 C 90.9375 172.847656 85.242188 167.15625 85.242188 160.15625 Z M 97.9375 175.601562 C 106.453125 175.601562 113.386719 168.671875 113.386719 160.15625 L 113.386719 152.621094 C 113.386719 144.105469 106.453125 137.175781 97.9375 137.175781 C 89.417969 137.175781 82.484375 144.105469 82.484375 152.621094 L 82.484375 160.15625 C 82.484375 168.671875 89.417969 175.601562 97.9375 175.601562 " fill-opacity="1" fill-rule="nonzero"/></g><g clip-path="url(#id3)"><path fill="rgb(100%, 100%, 100%)" d="M 126.273438 152.621094 C 126.273438 145.621094 131.964844 139.929688 138.964844 139.929688 C 145.964844 139.929688 151.65625 145.621094 151.65625 152.621094 L 151.65625 160.15625 C 151.65625 167.15625 145.964844 172.847656 138.964844 172.847656 C 131.964844 172.847656 126.273438 167.15625 126.273438 160.15625 Z M 138.964844 175.601562 C 147.484375 175.601562 154.414062 168.671875 154.414062 160.15625 L 154.414062 152.621094 C 154.414062 144.105469 147.484375 137.175781 138.964844 137.175781 C 130.445312 137.175781 123.515625 144.105469 123.515625 152.621094 L 123.515625 160.15625 C 123.515625 168.671875 130.445312 175.601562 138.964844 175.601562 " fill-opacity="1" fill-rule="nonzero"/></g><g clip-path="url(#id4)"><path fill="rgb(100%, 100%, 100%)" d="M 166.109375 192.652344 L 152.0625 206.691406 C 152.0625 206.695312 152.058594 206.695312 152.058594 206.695312 L 141.878906 216.871094 C 140.027344 218.722656 136.808594 218.722656 134.960938 216.871094 L 120.253906 202.171875 L 119.46875 201.386719 C 119.464844 201.382812 119.457031 201.382812 119.457031 201.378906 L 110.085938 192.09375 C 109.546875 191.554688 108.675781 191.554688 108.136719 192.09375 L 98.941406 201.289062 L 82.25 184.605469 C 84.417969 183.226562 86.941406 182.371094 89.695312 182.371094 L 110.628906 182.371094 C 113.398438 182.371094 115.996094 183.425781 118.011719 185.300781 L 125.164062 192.453125 C 125.191406 192.476562 125.234375 192.46875 125.261719 192.492188 L 136.988281 204.210938 C 137.527344 204.75 138.398438 204.75 138.9375 204.210938 L 158.304688 184.847656 C 160.386719 182.765625 164.019531 182.761719 166.109375 184.847656 C 168.257812 187 168.257812 190.5 166.109375 192.652344 Z M 101.941406 216.871094 C 100.03125 218.777344 96.925781 218.777344 95.023438 216.871094 L 70.792969 192.652344 C 69.75 191.609375 69.175781 190.222656 69.175781 188.75 C 69.175781 187.277344 69.75 185.890625 70.792969 184.847656 C 72.875 182.765625 76.507812 182.761719 78.597656 184.847656 L 97.964844 204.210938 C 98.503906 204.75 99.375 204.75 99.914062 204.210938 L 109.109375 195.015625 L 116.457031 202.359375 Z M 147.207031 182.371094 C 149.960938 182.371094 152.484375 183.226562 154.648438 184.605469 L 137.960938 201.289062 L 120.6875 184.019531 C 122.394531 182.96875 124.320312 182.371094 126.269531 182.371094 Z M 168.058594 182.902344 C 165.019531 179.863281 159.808594 179.804688 156.648438 182.664062 C 153.945312 180.792969 150.738281 179.613281 147.207031 179.613281 L 126.269531 179.613281 C 123.523438 179.613281 120.824219 180.539062 118.515625 182.164062 C 116.222656 180.527344 113.503906 179.613281 110.628906 179.613281 L 89.695312 179.613281 C 86.164062 179.613281 82.953125 180.792969 80.25 182.664062 C 77.085938 179.800781 71.875 179.867188 68.84375 182.902344 C 67.28125 184.460938 66.417969 186.539062 66.417969 188.75 C 66.417969 190.957031 67.28125 193.035156 68.84375 194.597656 L 72.808594 198.566406 L 72.808594 236.300781 C 72.808594 237.0625 73.425781 237.679688 74.1875 237.679688 C 74.949219 237.679688 75.566406 237.0625 75.566406 236.300781 L 75.566406 201.320312 L 82.484375 208.238281 L 82.484375 236.300781 C 82.484375 237.0625 83.101562 237.679688 83.863281 237.679688 C 84.625 237.679688 85.242188 237.0625 85.242188 236.300781 L 85.242188 210.996094 L 93.070312 218.820312 C 94.5625 220.3125 96.523438 221.058594 98.480469 221.058594 C 100.4375 221.058594 102.398438 220.3125 103.890625 218.820312 L 117.027344 205.6875 L 117.027344 236.300781 C 117.027344 237.0625 117.644531 237.679688 118.40625 237.679688 C 118.421875 237.679688 118.433594 237.671875 118.449219 237.671875 C 118.464844 237.671875 118.476562 237.679688 118.496094 237.679688 C 119.253906 237.679688 119.871094 237.0625 119.871094 236.300781 L 119.871094 205.6875 L 133.011719 218.820312 C 135.902344 221.710938 140.9375 221.710938 143.828125 218.820312 L 151.65625 210.996094 L 151.65625 236.300781 C 151.65625 237.0625 152.273438 237.679688 153.035156 237.679688 C 153.796875 237.679688 154.414062 237.0625 154.414062 236.300781 L 154.414062 208.238281 L 161.335938 201.320312 L 161.335938 236.300781 C 161.335938 237.0625 161.953125 237.679688 162.710938 237.679688 C 163.472656 237.679688 164.089844 237.0625 164.089844 236.300781 L 164.089844 198.566406 L 168.058594 194.597656 C 171.285156 191.371094 171.285156 186.125 168.058594 182.902344 " fill-opacity="1" fill-rule="nonzero"/></g><g fill="rgb(3.919983%, 7.839966%, 18.429565%)" fill-opacity="1"><g transform="translate(198.969601, 183.656575)"><g><path d="M 7.375 0.328125 C 6.050781 0.328125 4.765625 0.164062 3.515625 -0.15625 C 2.273438 -0.488281 1.265625 -0.925781 0.484375 -1.46875 L 2 -4.875 C 2.738281 -4.394531 3.585938 -4.003906 4.546875 -3.703125 C 5.515625 -3.410156 6.46875 -3.265625 7.40625 -3.265625 C 9.175781 -3.265625 10.0625 -3.707031 10.0625 -4.59375 C 10.0625 -5.0625 9.804688 -5.40625 9.296875 -5.625 C 8.796875 -5.851562 7.984375 -6.09375 6.859375 -6.34375 C 5.628906 -6.613281 4.601562 -6.898438 3.78125 -7.203125 C 2.957031 -7.503906 2.25 -7.988281 1.65625 -8.65625 C 1.0625 -9.332031 0.765625 -10.238281 0.765625 -11.375 C 0.765625 -12.363281 1.035156 -13.257812 1.578125 -14.0625 C 2.128906 -14.863281 2.945312 -15.5 4.03125 -15.96875 C 5.113281 -16.4375 6.4375 -16.671875 8 -16.671875 C 9.082031 -16.671875 10.144531 -16.546875 11.1875 -16.296875 C 12.226562 -16.054688 13.144531 -15.707031 13.9375 -15.25 L 12.515625 -11.8125 C 10.953125 -12.65625 9.441406 -13.078125 7.984375 -13.078125 C 7.066406 -13.078125 6.394531 -12.9375 5.96875 -12.65625 C 5.550781 -12.382812 5.34375 -12.035156 5.34375 -11.609375 C 5.34375 -11.171875 5.59375 -10.84375 6.09375 -10.625 C 6.59375 -10.40625 7.394531 -10.175781 8.5 -9.9375 C 9.738281 -9.675781 10.765625 -9.394531 11.578125 -9.09375 C 12.398438 -8.789062 13.109375 -8.304688 13.703125 -7.640625 C 14.304688 -6.984375 14.609375 -6.085938 14.609375 -4.953125 C 14.609375 -3.972656 14.335938 -3.082031 13.796875 -2.28125 C 13.253906 -1.488281 12.4375 -0.851562 11.34375 -0.375 C 10.257812 0.09375 8.9375 0.328125 7.375 0.328125 Z M 7.375 0.328125 "/></g></g></g><g fill="rgb(3.919983%, 7.839966%, 18.429565%)" fill-opacity="1"><g transform="translate(214.065398, 183.656575)"><g><path d="M 12.578125 -3.171875 L 5.671875 -3.171875 L 4.390625 0 L -0.328125 0 L 6.890625 -16.34375 L 11.4375 -16.34375 L 18.671875 0 L 13.859375 0 Z M 11.234375 -6.578125 L 9.125 -11.8125 L 7.03125 -6.578125 Z M 11.234375 -6.578125 "/></g></g></g><g fill="rgb(3.919983%, 7.839966%, 18.429565%)" fill-opacity="1"><g transform="translate(232.404348, 183.656575)"><g><path d="M 8.78125 -4.34375 L 6.25 -4.34375 L 6.25 0 L 1.640625 0 L 1.640625 -16.34375 L 9.109375 -16.34375 C 10.585938 -16.34375 11.867188 -16.097656 12.953125 -15.609375 C 14.046875 -15.117188 14.882812 -14.414062 15.46875 -13.5 C 16.0625 -12.59375 16.359375 -11.523438 16.359375 -10.296875 C 16.359375 -9.109375 16.082031 -8.070312 15.53125 -7.1875 C 14.976562 -6.3125 14.191406 -5.628906 13.171875 -5.140625 L 16.6875 0 L 11.734375 0 Z M 11.6875 -10.296875 C 11.6875 -11.054688 11.445312 -11.644531 10.96875 -12.0625 C 10.488281 -12.488281 9.773438 -12.703125 8.828125 -12.703125 L 6.25 -12.703125 L 6.25 -7.90625 L 8.828125 -7.90625 C 9.773438 -7.90625 10.488281 -8.113281 10.96875 -8.53125 C 11.445312 -8.945312 11.6875 -9.535156 11.6875 -10.296875 Z M 11.6875 -10.296875 "/></g></g></g><g fill="rgb(3.919983%, 7.839966%, 18.429565%)" fill-opacity="1"><g transform="translate(249.670026, 183.656575)"><g><path d="M 12.578125 -3.171875 L 5.671875 -3.171875 L 4.390625 0 L -0.328125 0 L 6.890625 -16.34375 L 11.4375 -16.34375 L 18.671875 0 L 13.859375 0 Z M 11.234375 -6.578125 L 9.125 -11.8125 L 7.03125 -6.578125 Z M 11.234375 -6.578125 "/></g></g></g><g fill="rgb(3.919983%, 7.839966%, 18.429565%)" fill-opacity="1"><g transform="translate(268.008976, 183.656575)"><g><path d="M 5.109375 -12.671875 L 0.09375 -12.671875 L 0.09375 -16.34375 L 14.734375 -16.34375 L 14.734375 -12.671875 L 9.734375 -12.671875 L 9.734375 0 L 5.109375 0 Z M 5.109375 -12.671875 "/></g></g></g><g fill="rgb(3.919983%, 7.839966%, 18.429565%)" fill-opacity="1"><g transform="translate(282.824794, 183.656575)"><g><path d="M 17.1875 -16.34375 L 17.1875 0 L 12.5625 0 L 12.5625 -6.375 L 6.25 -6.375 L 6.25 0 L 1.640625 0 L 1.640625 -16.34375 L 6.25 -16.34375 L 6.25 -10.203125 L 12.5625 -10.203125 L 12.5625 -16.34375 Z M 17.1875 -16.34375 "/></g></g></g><g fill="rgb(3.919983%, 7.839966%, 18.429565%)" fill-opacity="1"><g transform="translate(301.630388, 183.656575)"><g><path d="M 1.640625 -16.34375 L 6.25 -16.34375 L 6.25 0 L 1.640625 0 Z M 1.640625 -16.34375 "/></g></g></g></svg>